<svg xmlns="http://www.w3.org/2000/svg" xmlns:xlink="http://www.w3.org/1999/xlink" version="1.1" x="0px" y="0px" viewBox="0 0 100 125" enable-background="new 0 0 100 100" xml:space="preserve"><path d="M38.572,33.658c-1.842,2.287-5.244,6.945-8.325,13.47L30.23,47.17c-0.115,0.239-0.228,0.473-0.338,0.718  c-1.648,3.596-3.287,8.018-4.41,13.073c-0.028,0.118-0.054,0.234-0.079,0.346c-0.13,0.594-0.251,1.188-0.36,1.797  c-0.048,0.27-0.101,0.541-0.149,0.814c-0.079,0.47-0.155,0.949-0.228,1.431c-0.07,0.462-0.127,0.924-0.186,1.391  c-0.042,0.335-0.085,0.667-0.124,1.003c-0.037,0.366-0.073,0.732-0.104,1.098c-0.042,0.482-0.079,0.966-0.113,1.459  c-0.02,0.299-0.037,0.6-0.054,0.896c-0.025,0.586-0.048,1.174-0.056,1.763c0,0.169-0.006,0.341-0.006,0.504  c-0.034,3.326,0.211,6.801,0.836,10.406C14.51,76.186,7.801,63.865,7.801,49.984c0-0.811,0.023-1.625,0.07-2.425  c0.805-0.721,1.622-1.4,2.439-2.047c0.076-0.059,0.144-0.113,0.22-0.172c0.572-0.445,1.146-0.873,1.718-1.287  c0.313-0.228,0.625-0.453,0.941-0.67c0.2-0.144,0.403-0.276,0.603-0.408c0.403-0.27,0.808-0.535,1.217-0.794  c0.138-0.087,0.27-0.177,0.408-0.262C22.266,37.651,30.013,34.883,38.572,33.658z"/><path d="M58.458,32.018c-2.053-0.321-5.523-0.724-9.933-0.724c-9.274,0-21.795,1.769-33.689,9.105  c-0.068,0.042-0.132,0.085-0.194,0.124c-0.538,0.332-1.067,0.679-1.597,1.034c-0.155,0.101-0.31,0.203-0.462,0.307  c-0.527,0.358-1.045,0.727-1.566,1.104c-0.299,0.217-0.583,0.442-0.876,0.665c-0.217,0.163-0.434,0.33-0.648,0.498  c-0.482,0.377-0.96,0.758-1.431,1.158C9.66,30.844,18.545,18.604,30.962,12.327c5.106,1.698,9.849,4.07,14.219,7.089  c0.082,0.053,0.155,0.107,0.228,0.158c0.442,0.31,0.87,0.622,1.301,0.941c0.293,0.217,0.575,0.428,0.853,0.653  c0.239,0.18,0.468,0.36,0.701,0.546c0.535,0.422,1.056,0.853,1.566,1.287c0.031,0.028,0.068,0.059,0.107,0.087  c2.301,1.977,4.36,4.047,6.19,6.134c0.132,0.146,0.262,0.296,0.394,0.445c0.296,0.344,0.589,0.69,0.876,1.034  c0.237,0.293,0.476,0.586,0.71,0.882C58.224,31.726,58.348,31.869,58.458,32.018z"/><path d="M66.853,88.654c-5.162,2.261-10.871,3.512-16.867,3.512c-8.593,0-16.577-2.568-23.243-6.976  c-0.758-3.737-1.129-7.483-1.129-11.24c0-0.096-0.006-0.194,0-0.296c0-0.558,0.017-1.115,0.037-1.673  c0.011-0.338,0.028-0.673,0.042-1.008c0.011-0.115,0.017-0.234,0.028-0.349c0.439-7.136,2.18-13.563,4.351-18.99  c1.101,2.85,3.574,8.421,7.979,14.614C43.385,73.75,52.594,83.455,66.853,88.654z"/><path d="M69.765,48.35c-1.104-2.844-3.577-8.426-7.984-14.636c-5.328-7.491-14.512-17.168-28.723-22.375  c5.179-2.276,10.905-3.537,16.929-3.537c8.514,0,16.442,2.523,23.074,6.869C75.353,25.862,74.24,37.169,69.765,48.35z"/><path d="M91.913,54.63c-1.58,14.445-10.457,26.69-22.863,32.99c-10.846-3.613-20.1-10.232-27.549-19.708  c2.047,0.318,5.523,0.718,9.944,0.718c1.839,0,3.813-0.07,5.878-0.239l-0.006,0.011l0.358-0.042  C67.963,67.473,80.608,64.107,91.913,54.63z"/><path d="M92.169,49.984c0,0.791-0.023,1.577-0.065,2.357c-8.542,7.57-18.895,12.262-30.813,13.974  c1.912-2.371,5.514-7.305,8.683-14.231c3.825-8.362,7.612-21.156,5.013-36.077C85.41,23.688,92.169,36.046,92.169,49.984z"/><path d="M62.789,1.656C58.703,0.575,54.411,0,49.986,0c-4.424,0-8.716,0.575-12.8,1.656C15.78,7.308,0,26.803,0,49.984  s15.78,42.675,37.186,48.328c4.084,1.081,8.376,1.656,12.8,1.656c4.424,0,8.716-0.575,12.803-1.656  C84.19,92.659,99.97,73.165,99.97,49.984S84.19,7.308,62.789,1.656z M49.986,94.599c-24.643,0-44.619-19.973-44.619-44.616  S25.344,5.368,49.986,5.368c24.64,0,44.616,19.973,44.616,44.616S74.626,94.599,49.986,94.599z"/></svg>